<svg width="32" height="32" viewBox="0 0 32 32" fill="none" xmlns="http://www.w3.org/2000/svg">
<g clip-path="url(#clip0_920_1976)">
<path d="M16.0001 20.2667C18.3565 20.2667 20.2667 18.3565 20.2667 16.0001C20.2667 13.6436 18.3565 11.7334 16.0001 11.7334C13.6436 11.7334 11.7334 13.6436 11.7334 16.0001C11.7334 18.3565 13.6436 20.2667 16.0001 20.2667Z" fill="#2A7AE4"/>
<path d="M12 2.66699L9.55996 5.33366H5.33329C3.86663 5.33366 2.66663 6.53366 2.66663 8.00033V24.0003C2.66663 25.467 3.86663 26.667 5.33329 26.667H26.6666C28.1333 26.667 29.3333 25.467 29.3333 24.0003V8.00033C29.3333 6.53366 28.1333 5.33366 26.6666 5.33366H22.44L20 2.66699H12ZM16 22.667C12.32 22.667 9.33329 19.6803 9.33329 16.0003C9.33329 12.3203 12.32 9.33366 16 9.33366C19.68 9.33366 22.6666 12.3203 22.6666 16.0003C22.6666 19.6803 19.68 22.667 16 22.667Z" fill="#2A7AE4"/>
</g>
<defs>
<clipPath id="clip0_920_1976">
<rect width="32" height="32" fill="white"/>
</clipPath>
</defs>
</svg>
